<?xml version="1.0" encoding="iso-8859-1"?>
<!-- Generator: Adobe Illustrator 19.1.0, SVG Export Plug-In . SVG Version: 6.00 Build 0)  -->
<svg xmlns="http://www.w3.org/2000/svg" xmlns:xlink="http://www.w3.org/1999/xlink" version="1.1" id="Capa_1" x="0px" y="0px" viewBox="0 0 447.876 447.876" style="enable-background:new 0 0 447.876 447.876;" xml:space="preserve" width="512px" height="512px">
<g>
	<g>
		<path d="M29.125,0v39.312h93.281c-7.8,9.4-16.243,20.036-25.344,31.937    c-9.1,11.902-18.046,24.208-26.844,36.906c-8.797,12.699-17.24,25.282-25.343,37.782c-8.102,12.5-14.966,23.857-20.562,34.062    v27.906h163.5v-39.312H81.907c7.202-11.999,15.424-24.582,24.625-37.781s18.507-26.007,27.906-38.406s18.483-23.843,27.281-34.344    s16.41-19.058,22.812-25.656V0H29.125L29.125,0z M323.064,78c-1.963,0-3.924,1.086-5.312,2.938    c-1.388,1.851-2.187,4.445-2.188,7.062v186l-27.281-27.282c-1.833-1.832-4.44-2.882-7.031-2.844    c-2.493,0.039-4.955,1.082-6.719,2.844l-27.5,27.5c-1.8,1.8-2.844,4.329-2.844,6.875s1.043,5.075,2.844,6.875l91.656,91.625    c1.8,1.8,4.329,2.844,6.875,2.844s5.075-1.043,6.875-2.844l91.625-91.625c1.8-1.8,2.875-4.329,2.875-6.875    s-1.075-5.075-2.875-6.875l-27.5-27.5c-1.799-1.796-4.302-2.844-6.844-2.844s-5.076,1.048-6.875,2.844l-27.281,27.281v-186    c0-2.618-0.799-5.211-2.188-7.062c-1.388-1.851-3.349-2.937-5.312-2.938L323.064,78L323.064,78z M83.719,239.969    c-7.001,14.398-13.75,29.15-20.25,44.25s-13.111,31.044-19.813,47.844s-13.534,34.719-20.531,53.719    c-6.998,19-14.387,39.694-22.188,62.094h48.595c2.203-7.202,4.646-14.62,7.344-22.219c2.698-7.599,5.337-15.182,7.938-22.781h81    c2.6,7.599,5.271,15.182,7.969,22.781s5.14,15.017,7.344,22.219h50.094c-7.801-22.4-15.187-43.093-22.188-62.094    c-7.001-19-13.864-36.919-20.562-53.719c-6.699-16.8-13.337-32.743-19.938-47.844c-6.601-15.1-13.326-29.852-20.125-44.25H83.719    L83.719,239.969z M105.032,287.063c1.202,3.003,2.782,7.112,4.781,12.312s4.362,11.201,7.062,18    c2.701,6.799,5.531,14.3,8.531,22.5c3,8.2,6.114,16.81,9.312,25.812H75.625c3.198-9.003,6.337-17.612,9.438-25.812    c3.1-8.2,5.962-15.701,8.562-22.5s4.907-12.8,6.906-18C102.531,294.176,104.031,290.066,105.032,287.063L105.032,287.063z" fill="#006DF0"/>
	</g>
	<g>
	</g>
	<g>
	</g>
	<g>
	</g>
	<g>
	</g>
	<g>
	</g>
	<g>
	</g>
	<g>
	</g>
	<g>
	</g>
	<g>
	</g>
	<g>
	</g>
	<g>
	</g>
	<g>
	</g>
	<g>
	</g>
	<g>
	</g>
	<g>
	</g>
</g>
<g>
</g>
<g>
</g>
<g>
</g>
<g>
</g>
<g>
</g>
<g>
</g>
<g>
</g>
<g>
</g>
<g>
</g>
<g>
</g>
<g>
</g>
<g>
</g>
<g>
</g>
<g>
</g>
<g>
</g>
</svg>
