<?xml version="1.0" encoding="iso-8859-1"?>
<!-- Generator: Adobe Illustrator 19.0.0, SVG Export Plug-In . SVG Version: 6.00 Build 0)  -->
<svg xmlns="http://www.w3.org/2000/svg" xmlns:xlink="http://www.w3.org/1999/xlink" version="1.1" id="Layer_1" x="0px" y="0px" viewBox="0 0 512.001 512.001" style="enable-background:new 0 0 512.001 512.001;" xml:space="preserve" width="512px" height="512px">
<g>
	<g>
		<path d="M468.419,175.702L336.299,43.582c-4.167-4.166-10.919-4.165-15.086,0c-4.165,4.165-4.165,10.919,0,15.085l132.122,132.121    c2.083,2.083,4.813,3.124,7.542,3.124s5.459-1.042,7.542-3.124C472.584,186.622,472.584,179.867,468.419,175.702z" fill="#006DF0"/>
	</g>
</g>
<g>
	<g>
		<path d="M430.675,200.856L311.594,81.775c-4.165-4.164-10.919-4.165-15.086,0c-4.165,4.165-4.165,10.919,0,15.086l119.082,119.082    c2.084,2.083,4.813,3.124,7.543,3.124c2.73,0,5.46-1.042,7.542-3.124C434.84,211.777,434.84,205.023,430.675,200.856z" fill="#006DF0"/>
	</g>
</g>
<g>
	<g>
		<path d="M383.714,216.781l-88.495-88.495c-4.166-4.165-10.918-4.165-15.086,0c-4.165,4.165-4.165,10.919,0,15.085l88.495,88.495    c2.084,2.083,4.814,3.125,7.543,3.125c2.731,0,5.459-1.041,7.542-3.124C387.879,227.701,387.879,220.947,383.714,216.781z" fill="#006DF0"/>
	</g>
</g>
<g>
	<g>
		<path d="M324.259,220.224l-33.425-33.425c-4.164-4.164-10.916-4.164-15.085,0c-4.165,4.165-4.165,10.919,0,15.085l33.425,33.425    c2.083,2.083,4.813,3.124,7.542,3.124c2.73,0,5.459-1.042,7.542-3.124C328.425,231.143,328.425,224.389,324.259,220.224z" fill="#006DF0"/>
	</g>
</g>
<g>
	<g>
		<path d="M190.788,453.335L58.666,321.211c-4.165-4.164-10.918-4.164-15.086,0c-4.165,4.165-4.165,10.919,0,15.085L175.702,468.42    c2.083,2.083,4.813,3.124,7.542,3.124c2.731,0,5.46-1.042,7.542-3.124C194.952,464.255,194.954,457.501,190.788,453.335z" fill="#006DF0"/>
	</g>
</g>
<g>
	<g>
		<path d="M215.939,415.588L96.413,296.061c-4.165-4.165-10.919-4.164-15.086,0c-4.165,4.165-4.165,10.919,0,15.086l119.528,119.528    c2.082,2.083,4.813,3.124,7.542,3.124s5.46-1.042,7.542-3.124C220.105,426.509,220.105,419.754,215.939,415.588z" fill="#006DF0"/>
	</g>
</g>
<g>
	<g>
		<path d="M231.864,368.628l-88.493-88.494c-4.165-4.165-10.919-4.164-15.085,0c-4.165,4.165-4.166,10.919,0,15.086l88.493,88.494    c2.083,2.083,4.813,3.124,7.542,3.124s5.46-1.042,7.542-3.124C236.03,379.549,236.03,372.794,231.864,368.628z" fill="#006DF0"/>
	</g>
</g>
<g>
	<g>
		<path d="M235.311,309.175l-33.426-33.426c-4.165-4.165-10.919-4.165-15.085,0c-4.165,4.165-4.165,10.919,0,15.086l33.426,33.426    c2.082,2.083,4.813,3.124,7.542,3.124s5.46-1.041,7.542-3.124C239.476,320.096,239.476,313.342,235.311,309.175z" fill="#006DF0"/>
	</g>
</g>
<g>
	<g>
		<path d="M508.877,183.814c-4.166-4.165-10.918-4.165-15.086,0.001c-76.115,76.117-150.091,70.702-228.093,62.486    c-8.215-78.002-13.629-151.975,62.489-228.092c4.165-4.165,4.165-10.919,0-15.086c-4.166-4.165-10.918-4.165-15.085,0    c-81.585,81.586-77.225,162.462-69.092,240.885c-78.426-8.132-159.299-12.494-240.885,69.092c-4.165,4.165-4.165,10.919,0,15.085    c2.083,2.083,4.813,3.124,7.542,3.124c2.73,0,5.46-1.041,7.542-3.124c76.115-76.117,150.089-70.705,228.092-62.487    c8.217,78.002,13.63,151.975-62.487,228.092c-4.165,4.165-4.165,10.919,0,15.086c2.083,2.083,4.813,3.124,7.542,3.124    s5.46-1.041,7.542-3.124c81.586-81.586,77.226-162.462,69.092-240.886c21.335,2.212,42.844,4.148,64.509,4.147    c57.964-0.002,116.99-13.851,176.377-73.238C513.042,194.732,513.042,187.979,508.877,183.814z" fill="#006DF0"/>
	</g>
</g>
<g>
</g>
<g>
</g>
<g>
</g>
<g>
</g>
<g>
</g>
<g>
</g>
<g>
</g>
<g>
</g>
<g>
</g>
<g>
</g>
<g>
</g>
<g>
</g>
<g>
</g>
<g>
</g>
<g>
</g>
</svg>
