<?xml version="1.0" encoding="iso-8859-1"?>
<!-- Generator: Adobe Illustrator 18.1.1, SVG Export Plug-In . SVG Version: 6.00 Build 0)  -->
<svg xmlns="http://www.w3.org/2000/svg" xmlns:xlink="http://www.w3.org/1999/xlink" version="1.1" id="Capa_1" x="0px" y="0px" viewBox="0 0 512 512" style="enable-background:new 0 0 512 512;" xml:space="preserve" width="512px" height="512px">
<g>
	<g>
		<path d="M416.5,47.5C387.5,15.833,343,0,283,0H52v512h112V348h119c30.667,0,57.833-5.5,81.5-16.5    s42.167-25.833,55.5-44.5s23.333-38.334,30-59c6.667-20.667,10-42,10-64C460,118,445.5,79.167,416.5,47.5z M325,230    c-17.333,10.667-41.667,16-73,16h-88V92h88c31.334,0,55.667,5.333,73,16s26,31,26,61S342.333,219.333,325,230z" fill="#006DF0"/>
	</g>
</g>
<g>
</g>
<g>
</g>
<g>
</g>
<g>
</g>
<g>
</g>
<g>
</g>
<g>
</g>
<g>
</g>
<g>
</g>
<g>
</g>
<g>
</g>
<g>
</g>
<g>
</g>
<g>
</g>
<g>
</g>
</svg>
